pose12
version=1
nRows=4
nColumns=213
inDegrees=yes
endheader
time	platform_rx	platform_ry	platform_rz	platform_ty	pelvis_tilt	pelvis_list	pelvis_rotation	pelvis_tx	pelvis_ty	pelvis_tz	hip_flexion_r	hip_adduction_r	hip_rotation_r	knee_angle_r	knee_angle_r_beta	ankle_angle_r	subtalar_angle_r	mtp_angle_r	hip_flexion_l	hip_adduction_l	hip_rotation_l	knee_angle_l	knee_angle_l_beta	ankle_angle_l	subtalar_angle_l	mtp_angle_l	lumbar_extension	lumbar_bending	lumbar_rotation	arm_flex_r	arm_add_r	arm_rot_r	elbow_flex_r	pro_sup_r	wrist_flex_r	wrist_dev_r	arm_flex_l	arm_add_l	arm_rot_l	elbow_flex_l	pro_sup_l	wrist_flex_l	wrist_dev_l	platform_rx_u	platform_ry_u	platform_rz_u	platform_ty_u	pelvis_tilt_u	pelvis_list_u	pelvis_rotation_u	pelvis_tx_u	pelvis_ty_u	pelvis_tz_u	hip_flexion_r_u	hip_adduction_r_u	hip_rotation_r_u	knee_angle_r_u	knee_angle_r_beta_u	ankle_angle_r_u	subtalar_angle_r_u	mtp_angle_r_u	hip_flexion_l_u	hip_adduction_l_u	hip_rotation_l_u	knee_angle_l_u	knee_angle_l_beta_u	ankle_angle_l_u	subtalar_angle_l_u	mtp_angle_l_u	lumbar_extension_u	lumbar_bending_u	lumbar_rotation_u	arm_flex_r_u	arm_add_r_u	arm_rot_r_u	elbow_flex_r_u	pro_sup_r_u	wrist_flex_r_u	wrist_dev_r_u	arm_flex_l_u	arm_add_l_u	arm_rot_l_u	elbow_flex_l_u	pro_sup_l_u	wrist_flex_l_u	wrist_dev_l_u	addbrev_r.activation	addlong_r.activation	addlong_r.fiber_length	addmagDist_r.activation	addmagIsch_r.activation	addmagIsch_r.fiber_length	addmagMid_r.activation	addmagProx_r.activation	bflh_r.activation	bflh_r.fiber_length	bfsh_r.activation	edl_r.activation	edl_r.fiber_length	ehl_r.activation	ehl_r.fiber_length	fdl_r.activation	fdl_r.fiber_length	fhl_r.activation	fhl_r.fiber_length	gaslat_r.activation	gaslat_r.fiber_length	gasmed_r.activation	gasmed_r.fiber_length	glmax1_r.activation	glmax2_r.activation	glmax3_r.activation	glmed1_r.activation	glmed2_r.activation	glmed3_r.activation	glmin1_r.activation	glmin2_r.activation	glmin3_r.activation	glmin3_r.fiber_length	grac_r.activation	iliacus_r.activation	perbrev_r.activation	perbrev_r.fiber_length	perlong_r.activation	perlong_r.fiber_length	piri_r.activation	piri_r.fiber_length	psoas_r.activation	recfem_r.activation	recfem_r.fiber_length	sart_r.activation	semimem_r.activation	semimem_r.fiber_length	semiten_r.activation	semiten_r.fiber_length	soleus_r.activation	soleus_r.fiber_length	tfl_r.activation	tfl_r.fiber_length	tibant_r.activation	tibant_r.fiber_length	tibpost_r.activation	tibpost_r.fiber_length	vasint_r.activation	vasint_r.fiber_length	vaslat_r.activation	vaslat_r.fiber_length	vasmed_r.activation	vasmed_r.fiber_length	addbrev_l.activation	addlong_l.activation	addlong_l.fiber_length	addmagDist_l.activation	addmagIsch_l.activation	addmagIsch_l.fiber_length	addmagMid_l.activation	addmagProx_l.activation	bflh_l.activation	bflh_l.fiber_length	bfsh_l.activation	edl_l.activation	edl_l.fiber_length	ehl_l.activation	ehl_l.fiber_length	fdl_l.activation	fdl_l.fiber_length	fhl_l.activation	fhl_l.fiber_length	gaslat_l.activation	gaslat_l.fiber_length	gasmed_l.activation	gasmed_l.fiber_length	glmax1_l.activation	glmax2_l.activation	glmax3_l.activation	glmed1_l.activation	glmed2_l.activation	glmed3_l.activation	glmin1_l.activation	glmin2_l.activation	glmin3_l.activation	glmin3_l.fiber_length	grac_l.activation	iliacus_l.activation	perbrev_l.activation	perbrev_l.fiber_length	perlong_l.activation	perlong_l.fiber_length	piri_l.activation	piri_l.fiber_length	psoas_l.activation	recfem_l.activation	recfem_l.fiber_length	sart_l.activation	semimem_l.activation	semimem_l.fiber_length	semiten_l.activation	semiten_l.fiber_length	soleus_l.activation	soleus_l.fiber_length	tfl_l.activation	tfl_l.fiber_length	tibant_l.activation	tibant_l.fiber_length	tibpost_l.activation	tibpost_l.fiber_length	vasint_l.activation	vasint_l.fiber_length	vaslat_l.activation	vaslat_l.fiber_length	vasmed_l.activation	vasmed_l.fiber_length
      0.00258582	     20.00000000	     -0.00000000	      0.00000000	      0.25000000	    -20.90716510	     -0.00061743	     -0.00066699	      0.02401892	      0.76312105	      0.00000239	     65.35900648	    -15.53623449	    -10.00598966	     67.93502471	     67.93502471	     21.81356935	     -0.09752733	      0.00000000	     65.35898821	    -15.54002605	    -10.00226143	     67.93545628	     67.93545628	     21.83505672	      0.00000000	      0.00000000	     -0.09962668	      0.00057764	      0.00066508	     64.01985400	     -0.00089454	     89.86318391	      0.11919925	      0.11673946	      0.00000000	     -0.00000000	     64.01988703	     -0.00097566	     89.86330846	      0.11925674	      0.11675513	      0.00000000	     -0.00000000	     -0.00000000	      0.00000000	      0.00000000	      0.00000000	     62.38791289	     -0.46062099	     -0.49509876	      0.01473707	      0.09343336	      0.00178593	    -74.27190691	     -1.72876841	     -4.66467794	    -19.62821854	    -19.62821854	   -362.68218346	    -73.41586523	      0.00000000	    -74.28478085	     -4.56424921	     -1.89858193	    -19.30426734	    -19.30426734	   -346.61878199	     -0.00000000	     -0.00000000	    -76.87108746	      0.42895448	      0.49441084	     15.31939211	     -0.67555386	     -0.44847550	      1.95620935	      0.08163924	      0.00000000	     -0.00000000	     15.34504281	     -0.74004958	     -0.40028549	      2.00072216	      0.09376647	      0.00000000	     -0.00000000	      0.01000000	      0.01000000	      0.09464306	      0.01000000	      0.01000000	      0.19636455	      0.01000000	      0.01000000	      0.01000000	      0.11709158	      0.01000000	      0.01000000	      0.05548326	      0.01000000	      0.06338023	      0.01000000	      0.04730805	      0.01000000	      0.05543767	      0.01000000	      0.06121102	      0.01000000	      0.05199400	      0.01000000	      0.01000000	      0.01000000	      0.01000000	      0.01000000	      0.01000000	      0.01000000	      0.01000000	      0.01000000	      0.04441221	      0.01000000	      0.01000000	      0.01000000	      0.05033917	      0.01000000	      0.05678473	      0.01000000	      0.02909823	      0.01000000	      0.01000000	      0.06039433	      0.01000000	      0.01000000	      0.07794834	      0.01000000	      0.22823435	      0.01000000	      0.05883456	      0.01000000	      0.04776823	      0.01000000	      0.04993130	      0.01000000	      0.04157652	      0.01000000	      0.12554992	      0.01000000	      0.12309918	      0.01000000	      0.12104009	      0.01000000	      0.01000000	      0.09464583	      0.01000000	      0.01000000	      0.19636565	      0.01000000	      0.01000000	      0.01000000	      0.11709179	      0.01000000	      0.01000000	      0.05548881	      0.01000000	      0.06337424	      0.01000000	      0.04730492	      0.01000000	      0.05543465	      0.01000000	      0.06121204	      0.01000000	      0.05199556	      0.01000000	      0.01000000	      0.01000000	      0.01000000	      0.01000000	      0.01000000	      0.01000000	      0.01000000	      0.01000000	      0.04440990	      0.01000000	      0.01000000	      0.01000000	      0.05035789	      0.01000000	      0.05679477	      0.01000000	      0.02909744	      0.01000000	      0.01000000	      0.06039423	      0.01000000	      0.01000000	      0.07794839	      0.01000000	      0.22823480	      0.01000000	      0.05883676	      0.01000000	      0.04776625	      0.01000000	      0.04991055	      0.01000000	      0.04157277	      0.01000000	      0.12555005	      0.01000000	      0.12309930	      0.01000000	      0.12104021
      0.00344775	     20.00000000	     -0.00000000	      0.00000000	      0.25000000	    -20.84450009	     -0.00107094	     -0.00115277	      0.02403380	      0.76321491	      0.00000415	     65.28428429	    -15.53797057	    -10.01069397	     67.91507100	     67.91507100	     21.45245790	     -0.17015078	      0.00000000	     65.28425473	    -15.54455675	    -10.00423205	     67.91582263	     67.91582263	     21.48977374	      0.00000000	      0.00000000	     -0.17682407	      0.00099873	      0.00115076	     64.03522405	     -0.00157224	     89.86273426	      0.12116169	      0.11682018	      0.00000000	     -0.00000000	     64.03528283	     -0.00171809	     89.86290718	      0.12126386	      0.11684801	      0.00000000	     -0.00000000	     -0.00000000	      0.00000000	      0.00000000	      0.00000000	     83.00013574	     -0.58963008	     -0.62946041	      0.01981075	      0.12432908	      0.00229101	    -99.12041249	     -2.29808823	     -6.25663755	    -26.73263062	    -26.73263062	   -474.36879170	    -94.82841738	      0.00000000	    -99.13334160	     -5.93475165	     -2.69037477	    -26.31529334	    -26.31529334	   -453.77491918	      0.00000000	      0.00000000	   -102.22950269	      0.54590758	      0.63009540	     20.33635806	     -0.89660676	     -0.59460203	      2.59627650	      0.10556732	      0.00000000	     -0.00000000	     20.37042326	     -0.98223341	     -0.53059779	      2.65538345	      0.12166802	     -0.00000000	     -0.00000000	      0.01000000	      0.01000000	      0.09465381	      0.01000000	      0.01000000	      0.19630779	      0.01000000	      0.01000000	      0.01000000	      0.11706002	      0.01000000	      0.01000000	      0.05563744	      0.01000000	      0.06357604	      0.01000000	      0.04730609	      0.01000000	      0.05542467	      0.01000000	      0.06112422	      0.01000000	      0.05192727	      0.01000000	      0.01000000	      0.01000000	      0.01000000	      0.01000000	      0.01000000	      0.01000000	      0.01000000	      0.01000000	      0.04439900	      0.01000000	      0.01000000	      0.01000000	      0.05030196	      0.01000000	      0.05675639	      0.01000000	      0.02908829	      0.01000000	      0.01000000	      0.06041193	      0.01000000	      0.01000000	      0.07792903	      0.01000000	      0.22818857	      0.01000000	      0.05872225	      0.01000000	      0.04781447	      0.01000000	      0.05017049	      0.01000000	      0.04157146	      0.01000000	      0.12554223	      0.01000000	      0.12309247	      0.01000000	      0.12103328	      0.01000000	      0.01000000	      0.09465939	      0.01000000	      0.01000000	      0.19630990	      0.01000000	      0.01000000	      0.01000000	      0.11706046	      0.01000000	      0.01000000	      0.05564957	      0.01000000	      0.06356368	      0.01000000	      0.04729907	      0.01000000	      0.05541774	      0.01000000	      0.06112678	      0.01000000	      0.05193122	      0.01000000	      0.01000000	      0.01000000	      0.01000000	      0.01000000	      0.01000000	      0.01000000	      0.01000000	      0.01000000	      0.04439445	      0.01000000	      0.01000000	      0.01000000	      0.05034457	      0.01000000	      0.05678014	      0.01000000	      0.02908652	      0.01000000	      0.01000000	      0.06041165	      0.01000000	      0.01000000	      0.07792913	      0.01000000	      0.22818944	      0.01000000	      0.05872662	      0.01000000	      0.04780952	      0.01000000	      0.05013057	      0.01000000	      0.04156300	      0.01000000	      0.12554249	      0.01000000	      0.12309270	      0.01000000	      0.12103351
      0.00430969	     20.00000000	      0.00000000	      0.00000000	      0.25000000	    -20.76411166	     -0.00163037	     -0.00174766	      0.02405309	      0.76333535	      0.00000632	     65.18811481	    -15.54019312	    -10.01678683	     67.88882974	     67.88882974	     20.99732269	     -0.26054159	      0.00000000	     65.18807479	    -15.55023286	    -10.00692946	     67.88997815	     67.88997815	     21.05419317	      0.00000000	      0.00000000	     -0.27581556	      0.00151490	      0.00174719	     64.05489735	     -0.00243959	     89.86215928	      0.12367313	      0.11692167	      0.00000000	     -0.00000000	     64.05498906	     -0.00266819	     89.86239407	      0.12383244	      0.11696507	      0.00000000	     -0.00000000	     -0.00000000	      0.00000000	      0.00000000	      0.00000000	    103.51282192	     -0.70648723	     -0.74846361	      0.02495823	      0.15512068	      0.00275013	   -124.03871010	     -2.85699725	     -7.88860762	    -34.22279150	    -34.22279150	   -580.83170043	   -114.65431332	      0.00000000	   -124.04985139	     -7.22218131	     -3.58683368	    -33.72109233	    -33.72109233	   -556.11600142	      0.00000000	     -0.00000000	   -127.44106619	      0.64964432	      0.75161074	     25.30462138	     -1.11561170	     -0.73939702	      3.23017457	      0.13031013	      0.00000000	     -0.00000000	     25.34693944	     -1.22194094	     -0.65987732	      3.30358860	      0.15030388	      0.00000000	     -0.00000000	      0.01000000	      0.01000000	      0.09466885	      0.01000000	      0.01000000	      0.19623135	      0.01000000	      0.01000000	      0.01000000	      0.11701398	      0.01000000	      0.01000000	      0.05585584	      0.01000000	      0.06384282	      0.01000000	      0.04730297	      0.01000000	      0.05540428	      0.01000000	      0.06098627	      0.01000000	      0.05182131	      0.01000000	      0.01000000	      0.01000000	      0.01000000	      0.01000000	      0.01000000	      0.01000000	      0.01000000	      0.01000000	      0.04438089	      0.01000000	      0.01000000	      0.01000000	      0.05024651	      0.01000000	      0.05671015	      0.01000000	      0.02907278	      0.01000000	      0.01000000	      0.06044279	      0.01000000	      0.01000000	      0.07789945	      0.01000000	      0.22812693	      0.01000000	      0.05857098	      0.01000000	      0.04788864	      0.01000000	      0.05048516	      0.01000000	      0.04156363	      0.01000000	      0.12553157	      0.01000000	      0.12308307	      0.01000000	      0.12102384	      0.01000000	      0.01000000	      0.09467826	      0.01000000	      0.01000000	      0.19623478	      0.01000000	      0.01000000	      0.01000000	      0.11701478	      0.01000000	      0.01000000	      0.05587640	      0.01000000	      0.06382228	      0.01000000	      0.04728994	      0.01000000	      0.05539081	      0.01000000	      0.06099090	      0.01000000	      0.05182821	      0.01000000	      0.01000000	      0.01000000	      0.01000000	      0.01000000	      0.01000000	      0.01000000	      0.01000000	      0.01000000	      0.04437335	      0.01000000	      0.01000000	      0.01000000	      0.05032489	      0.01000000	      0.05675733	      0.01000000	      0.02906940	      0.01000000	      0.01000000	      0.06044219	      0.01000000	      0.01000000	      0.07789964	      0.01000000	      0.22812836	      0.01000000	      0.05857815	      0.01000000	      0.04787939	      0.01000000	      0.05042089	      0.01000000	      0.04154761	      0.01000000	      0.12553200	      0.01000000	      0.12308344	      0.01000000	      0.12102422
      0.00549029	     20.00000000	      0.00000000	      0.00000000	      0.25000000	    -20.62539250	     -0.00255009	     -0.00271678	      0.02408677	      0.76354331	      0.00000991	     65.02146732	    -15.54400772	    -10.02745946	     67.84205727	     67.84205727	     20.22957060	     -0.41078620	      0.00000000	     65.02141595	    -15.55973818	    -10.01197730	     67.84385783	     67.84385783	     20.31867543	      0.00000000	      0.00000000	     -0.44654588	      0.00235594	      0.00272310	     64.08875308	     -0.00393234	     89.86116968	      0.12799497	      0.11709864	      0.00000000	     -0.00000000	     64.08890129	     -0.00430288	     89.86151067	      0.12825229	      0.11716873	      0.00000000	     -0.00000000	     -0.00000000	      0.00000000	     -0.00000000	      0.00000000	    131.45611673	     -0.84824509	     -0.88943109	      0.03210947	      0.19715282	      0.00331154	   -158.29461964	     -3.60048786	    -10.20961782	    -45.13865615	    -45.13865615	   -718.19638307	   -139.44462221	      0.00000000	   -158.30294734	     -8.85673690	     -5.00138441	    -44.53925932	    -44.53925932	   -688.40153564	      0.00000000	      0.00000000	   -161.74105421	      0.77137947	      0.89825407	     32.03507934	     -1.41269627	     -0.93708283	      4.08974069	      0.17159218	      0.00000000	     -0.00000000	     32.08844293	     -1.54668800	     -0.83678694	      4.18228960	      0.19678777	     -0.00000000	      0.00000000	      0.01000000	      0.01000000	      0.09469674	      0.01000000	      0.01000000	      0.19609487	      0.01000000	      0.01000000	      0.01000000	      0.11692585	      0.01000000	      0.01000000	      0.05624590	      0.01000000	      0.06431155	      0.01000000	      0.04729639	      0.01000000	      0.05536136	      0.01000000	      0.06072778	      0.01000000	      0.05163478	      0.01000000	      0.01000000	      0.01000000	      0.01000000	      0.01000000	      0.01000000	      0.01000000	      0.01000000	      0.01000000	      0.04434811	      0.01000000	      0.01000000	      0.01000000	      0.05014373	      0.01000000	      0.05661378	      0.01000000	      0.02904090	      0.01000000	      0.01000000	      0.06051411	      0.01000000	      0.01000000	      0.07783931	      0.01000000	      0.22801698	      0.01000000	      0.05830383	      0.01000000	      0.04803355	      0.01000000	      0.05103030	      0.01000000	      0.04154751	      0.01000000	      0.12551182	      0.01000000	      0.12306552	      0.01000000	      0.12100636	      0.01000000	      0.01000000	      0.09471296	      0.01000000	      0.01000000	      0.19610052	      0.01000000	      0.01000000	      0.01000000	      0.11692731	      0.01000000	      0.01000000	      0.05628102	      0.01000000	      0.06427674	      0.01000000	      0.04727103	      0.01000000	      0.05533318	      0.01000000	      0.06073531	      0.01000000	      0.05164394	      0.01000000	      0.01000000	      0.01000000	      0.01000000	      0.01000000	      0.01000000	      0.01000000	      0.01000000	      0.01000000	      0.04433548	      0.01000000	      0.01000000	      0.01000000	      0.05028669	      0.01000000	      0.05670988	      0.01000000	      0.02903435	      0.01000000	      0.01000000	      0.06051278	      0.01000000	      0.01000000	      0.07783969	      0.01000000	      0.22801937	      0.01000000	      0.05831581	      0.01000000	      0.04801700	      0.01000000	      0.05092478	      0.01000000	      0.04151498	      0.01000000	      0.12551254	      0.01000000	      0.12306616	      0.01000000	      0.12100700
